<svg width="20" height="20" viewBox="0 0 20 20" fill="none" xmlns="http://www.w3.org/2000/svg">
<path d="M14.9984 5.96663C14.9484 5.9583 14.8901 5.9583 14.8401 5.96663C13.6901 5.92496 12.7734 4.98329 12.7734 3.81663C12.7734 2.62496 13.7318 1.66663 14.9234 1.66663C16.1151 1.66663 17.0734 2.63329 17.0734 3.81663C17.0651 4.98329 16.1484 5.92496 14.9984 5.96663Z" stroke="white" stroke-width="1.5" stroke-linecap="round" stroke-linejoin="round"/>
<path d="M14.1383 12.0333C15.28 12.225 16.5383 12.025 17.4216 11.4333C18.5966 10.65 18.5966 9.36664 17.4216 8.58331C16.53 7.99164 15.2549 7.79163 14.1133 7.99163" stroke="white" stroke-width="1.5" stroke-linecap="round" stroke-linejoin="round"/>
<path d="M4.97344 5.96663C5.02344 5.9583 5.08177 5.9583 5.13177 5.96663C6.28177 5.92496 7.19844 4.98329 7.19844 3.81663C7.19844 2.62496 6.24011 1.66663 5.04844 1.66663C3.85677 1.66663 2.89844 2.63329 2.89844 3.81663C2.90677 4.98329 3.82344 5.92496 4.97344 5.96663Z" stroke="white" stroke-width="1.5" stroke-linecap="round" stroke-linejoin="round"/>
<path d="M5.83255 12.0333C4.69088 12.225 3.43255 12.025 2.54922 11.4333C1.37422 10.65 1.37422 9.36664 2.54922 8.58331C3.44089 7.99164 4.71588 7.79163 5.85755 7.99163" stroke="white" stroke-width="1.5" stroke-linecap="round" stroke-linejoin="round"/>
<path d="M10.0023 12.1917C9.95234 12.1834 9.89401 12.1834 9.84401 12.1917C8.69401 12.1501 7.77734 11.2084 7.77734 10.0417C7.77734 8.85006 8.73568 7.89172 9.92734 7.89172C11.119 7.89172 12.0773 8.85839 12.0773 10.0417C12.069 11.2084 11.1523 12.1584 10.0023 12.1917Z" stroke="white" stroke-width="1.5" stroke-linecap="round" stroke-linejoin="round"/>
<path d="M7.57656 14.8167C6.40156 15.6 6.40156 16.8833 7.57656 17.6667C8.9099 18.5583 11.0932 18.5583 12.4266 17.6667C13.6016 16.8833 13.6016 15.6 12.4266 14.8167C11.1016 13.9333 8.9099 13.9333 7.57656 14.8167Z" stroke="white" stroke-width="1.5" stroke-linecap="round" stroke-linejoin="round"/>
</svg>
