<svg width="17" height="17" viewBox="0 0 17 17" fill="none" xmlns="http://www.w3.org/2000/svg">
<path d="M10.625 5.1V11.05V11.9C10.625 12.1888 10.745 12.444 10.9285 12.5976C11.1789 12.0491 11.5691 11.6057 12.0417 11.3363V11.05V5.95V4.25H11.3333C10.9421 4.25 10.625 4.63056 10.625 5.1Z" fill="white"/>
<path d="M12.0417 11.9C12.0417 12.3694 11.7245 12.75 11.3333 12.75H13.1042H15.3448C14.9469 11.7449 14.0931 11.05 13.1042 11.05C12.7239 11.05 12.3637 11.1527 12.0417 11.3363V11.9Z" fill="white"/>
<path fill-rule="evenodd" clip-rule="evenodd" d="M0.708333 0C0.317132 0 0 0.380558 0 0.85V11.9C0 12.3694 0.317132 12.75 0.708333 12.75H1.65524C1.50227 13.1364 1.41667 13.5687 1.41667 14.025C1.41667 15.668 2.52663 17 3.89583 17C5.26504 17 6.375 15.668 6.375 14.025C6.375 13.5687 6.2894 13.1364 6.13642 12.75H10.8636C10.7106 13.1364 10.625 13.5687 10.625 14.025C10.625 15.668 11.735 17 13.1042 17C14.4734 17 15.5833 15.668 15.5833 14.025C15.5833 13.5687 15.4977 13.1364 15.3448 12.75H16.2917C16.6829 12.75 17 12.3694 17 11.9V7.65C17 7.42457 16.9254 7.20837 16.7925 7.04896L14.6675 4.49896C14.5347 4.33955 14.3545 4.25 14.1667 4.25H12.0417V0.85C12.0417 0.380558 11.7245 0 11.3333 0H0.708333ZM13.1042 11.05H15.5833V8.00208L13.8733 5.95H12.0417V4.25H11.3333C10.9421 4.25 10.625 4.63056 10.625 5.1V1.7H1.41667V11.05H3.89583C2.90686 11.05 2.05314 11.7449 1.65524 12.75H3.89583C3.30903 12.75 2.83333 13.3208 2.83333 14.025C2.83333 14.7292 3.30903 15.3 3.89583 15.3C4.48264 15.3 4.95833 14.7292 4.95833 14.025C4.95833 13.3208 4.48264 12.75 3.89583 12.75H6.13642C5.73853 11.7449 4.88481 11.05 3.89583 11.05H10.625V11.9C10.625 12.1888 10.745 12.444 10.9285 12.5976C11.1789 12.0491 11.5691 11.6057 12.0417 11.3363V11.9C12.0417 12.3694 11.7245 12.75 11.3333 12.75H13.1042C12.5174 12.75 12.0417 13.3208 12.0417 14.025C12.0417 14.7292 12.5174 15.3 13.1042 15.3C13.691 15.3 14.1667 14.7292 14.1667 14.025C14.1667 13.3208 13.691 12.75 13.1042 12.75H15.3448C14.9469 11.7449 14.0931 11.05 13.1042 11.05ZM13.1042 11.05C12.7239 11.05 12.3637 11.1527 12.0417 11.3363V11.05H13.1042Z" fill="white"/>
<path d="M3.89583 11.05C2.90686 11.05 2.05314 11.7449 1.65524 12.75H3.89583H6.13642C5.73853 11.7449 4.88481 11.05 3.89583 11.05Z" fill="white"/>
</svg>
