<svg width="320" height="153" viewBox="0 0 320 153" fill="none" xmlns="http://www.w3.org/2000/svg">
<path d="M108.189 109.29C102.598 109.411 97.2759 111.717 93.3641 115.714C89.4523 119.712 87.2617 125.082 87.2617 130.675C87.2617 136.268 89.4523 141.638 93.3641 145.636C97.2759 149.633 102.598 151.939 108.189 152.06H112.469V109.29H108.189Z" fill="#263238"/>
<path d="M264.001 109.29C261.154 109.229 258.323 109.736 255.674 110.783C253.026 111.83 250.613 113.396 248.578 115.388C246.542 117.379 244.925 119.758 243.821 122.383C242.717 125.008 242.148 127.827 242.148 130.675C242.148 133.523 242.717 136.342 243.821 138.967C244.925 141.593 246.542 143.971 248.578 145.963C250.613 147.955 253.026 149.52 255.674 150.567C258.323 151.614 261.154 152.122 264.001 152.06H268.271V109.29H264.001Z" fill="#263238"/>
<path d="M193.4 152.05C205.207 152.05 214.78 142.478 214.78 130.67C214.78 118.862 205.207 109.29 193.4 109.29C181.592 109.29 172.02 118.862 172.02 130.67C172.02 142.478 181.592 152.05 193.4 152.05Z" fill="#263238"/>
<path d="M37.5792 152.05C49.3871 152.05 58.9592 142.478 58.9592 130.67C58.9592 118.862 49.3871 109.29 37.5792 109.29C25.7714 109.29 16.1992 118.862 16.1992 130.67C16.1992 142.478 25.7714 152.05 37.5792 152.05Z" fill="#263238"/>
<path d="M216.62 17.3198H135.49V120.4H216.62V17.3198Z" fill="#317519"/>
<path opacity="0.2" d="M216.62 17.3198H135.49V120.4H216.62V17.3198Z" fill="black"/>
<path d="M298.513 42.953L297.752 43.6016L300.982 47.3923L301.743 46.7438L298.513 42.953Z" fill="#317519"/>
<path d="M285.353 27.4842L284.592 28.1328L294.652 39.9373L295.413 39.2886L285.353 27.4842Z" fill="#317519"/>
<path d="M216.619 120.39H317.379V75.6598C317.381 72.3384 316.196 69.1255 314.039 66.5998L282.689 29.7598C279.366 25.8586 275.235 22.7257 270.581 20.5778C265.928 18.43 260.864 17.3183 255.739 17.3198H216.619V120.39Z" fill="#317519"/>
<path d="M233.131 71.4098V33.5098C233.131 32.6935 233.292 31.8851 233.605 31.131C233.917 30.3769 234.376 29.6919 234.953 29.1151C235.531 28.5383 236.217 28.0811 236.971 27.7696C237.726 27.4581 238.535 27.2985 239.351 27.2998H249.001C254.051 27.2998 259.042 28.396 263.627 30.5127C268.213 32.6294 272.285 35.7161 275.561 39.5598L299.271 67.3798C300.223 68.4953 300.748 69.9131 300.751 71.3798C300.751 73.0277 300.097 74.6083 298.933 75.7745C297.768 76.9407 296.189 77.5971 294.541 77.5998H239.351C237.706 77.5998 236.129 76.9486 234.963 75.7886C233.798 74.6286 233.139 73.0542 233.131 71.4098Z" fill="white"/>
<path d="M317.381 108.21H304.941C304.268 108.21 303.607 108.034 303.024 107.7C302.44 107.365 301.954 106.884 301.613 106.304C301.273 105.724 301.09 105.065 301.082 104.393C301.075 103.72 301.243 103.057 301.571 102.47L303.671 98.71C304.003 98.1061 304.49 97.6022 305.083 97.2505C305.676 96.8988 306.352 96.7122 307.041 96.71H317.381V108.21Z" fill="white"/>
<path d="M198.709 0H2.61914V120.39H198.709V0Z" fill="#317519"/>
<path opacity="0.6" d="M198.709 0H2.61914V120.39H198.709V0Z" fill="white"/>
<path opacity="0.5" d="M89.0907 102.04H55.7207V109.29H89.0907V102.04Z" fill="#317519"/>
<path opacity="0.5" d="M11.7791 102.04H2.61914V109.29H11.7791V102.04Z" fill="#317519"/>
<path opacity="0.4" d="M70.3591 0H2.61914V120.39H70.3591V0Z" fill="#317519"/>
<path opacity="0.4" d="M33.0607 0H31.9707V120.39H33.0607V0Z" fill="#317519"/>
<path d="M318.36 120.39H1.64C0.734252 120.39 0 121.124 0 122.03V127.1C0 128.006 0.734252 128.74 1.64 128.74H318.36C319.266 128.74 320 128.006 320 127.1V122.03C320 121.124 319.266 120.39 318.36 120.39Z" fill="#263238"/>
<path d="M268.29 152.05C280.098 152.05 289.67 142.478 289.67 130.67C289.67 118.862 280.098 109.29 268.29 109.29C256.482 109.29 246.91 118.862 246.91 130.67C246.91 142.478 256.482 152.05 268.29 152.05Z" fill="#263238"/>
<path d="M268.289 144.43C275.889 144.43 282.049 138.27 282.049 130.67C282.049 123.071 275.889 116.91 268.289 116.91C260.69 116.91 254.529 123.071 254.529 130.67C254.529 138.27 260.69 144.43 268.289 144.43Z" fill="white"/>
<path d="M112.47 152.05C124.278 152.05 133.85 142.478 133.85 130.67C133.85 118.862 124.278 109.29 112.47 109.29C100.662 109.29 91.0898 118.862 91.0898 130.67C91.0898 142.478 100.662 152.05 112.47 152.05Z" fill="#263238"/>
<path d="M112.471 144.43C120.07 144.43 126.231 138.27 126.231 130.67C126.231 123.071 120.07 116.91 112.471 116.91C104.871 116.91 98.7109 123.071 98.7109 130.67C98.7109 138.27 104.871 144.43 112.471 144.43Z" fill="white"/>
</svg>
