<svg width="408" height="243" viewBox="0 0 408 243" fill="none" xmlns="http://www.w3.org/2000/svg">
<path d="M264.68 184.92H247.68C238.83 184.92 231.68 197.75 231.68 213.58C231.68 229.41 238.85 242.23 247.68 242.23H264.68C273.53 242.23 280.68 229.4 280.68 213.58C280.68 197.76 273.53 184.92 264.68 184.92Z" fill="#263238"/>
<mask id="mask0_1228_1298" style="mask-type:luminance" maskUnits="userSpaceOnUse" x="231" y="184" width="50" height="59">
<path d="M264.68 184.92H247.68C238.83 184.92 231.68 197.75 231.68 213.58C231.68 229.41 238.85 242.23 247.68 242.23H264.68C273.53 242.23 280.68 229.4 280.68 213.58C280.68 197.76 273.53 184.92 264.68 184.92Z" fill="white"/>
</mask>
<g mask="url(#mask0_1228_1298)">
<path opacity="0.05" d="M284.68 184.92H267.68C258.83 184.92 251.68 197.75 251.68 213.58C251.68 229.41 258.85 242.23 267.68 242.23H284.68C293.53 242.23 300.68 229.4 300.68 213.58C300.68 197.76 293.53 184.92 284.68 184.92Z" fill="white"/>
</g>
<path d="M402.389 191.06L104.699 190.85V0.700195H402.389V191.06Z" fill="#76B900"/>
<path opacity="0.3" d="M402.389 0.700195H200.629V191.05H402.389V0.700195Z" fill="#263238"/>
<path opacity="0.2" d="M200.629 0.700195H104.699V194.81H200.629V0.700195Z" fill="white"/>
<path opacity="0.1" d="M105.42 9.54004H402.39" stroke="white" stroke-width="2" stroke-linecap="round" stroke-linejoin="round"/>
<path opacity="0.1" d="M105.42 17.77H402.39" stroke="white" stroke-width="2" stroke-linecap="round" stroke-linejoin="round"/>
<path opacity="0.1" d="M105.42 25.9902H402.39" stroke="white" stroke-width="2" stroke-linecap="round" stroke-linejoin="round"/>
<path opacity="0.1" d="M105.42 34.21H402.39" stroke="white" stroke-width="2" stroke-linecap="round" stroke-linejoin="round"/>
<path opacity="0.1" d="M105.42 42.4404H402.39" stroke="white" stroke-width="2" stroke-linecap="round" stroke-linejoin="round"/>
<path opacity="0.1" d="M105.42 50.6602H402.39" stroke="white" stroke-width="2" stroke-linecap="round" stroke-linejoin="round"/>
<path opacity="0.1" d="M105.42 58.8804H402.39" stroke="white" stroke-width="2" stroke-linecap="round" stroke-linejoin="round"/>
<path opacity="0.1" d="M105.42 67.1001H402.39" stroke="white" stroke-width="2" stroke-linecap="round" stroke-linejoin="round"/>
<path opacity="0.1" d="M105.42 75.3301H402.39" stroke="white" stroke-width="2" stroke-linecap="round" stroke-linejoin="round"/>
<path opacity="0.1" d="M105.42 83.5503H402.39" stroke="white" stroke-width="2" stroke-linecap="round" stroke-linejoin="round"/>
<path opacity="0.1" d="M105.42 91.77H402.39" stroke="white" stroke-width="2" stroke-linecap="round" stroke-linejoin="round"/>
<path opacity="0.1" d="M105.42 100H402.39" stroke="white" stroke-width="2" stroke-linecap="round" stroke-linejoin="round"/>
<path opacity="0.1" d="M105.42 108.22H402.39" stroke="white" stroke-width="2" stroke-linecap="round" stroke-linejoin="round"/>
<path opacity="0.1" d="M105.42 116.44H402.39" stroke="white" stroke-width="2" stroke-linecap="round" stroke-linejoin="round"/>
<path opacity="0.1" d="M105.42 124.66H402.39" stroke="white" stroke-width="2" stroke-linecap="round" stroke-linejoin="round"/>
<path opacity="0.1" d="M105.42 132.89H402.39" stroke="white" stroke-width="2" stroke-linecap="round" stroke-linejoin="round"/>
<path opacity="0.1" d="M105.42 141.11H402.39" stroke="white" stroke-width="2" stroke-linecap="round" stroke-linejoin="round"/>
<path opacity="0.1" d="M105.42 149.33H402.39" stroke="white" stroke-width="2" stroke-linecap="round" stroke-linejoin="round"/>
<path opacity="0.1" d="M105.42 157.56H402.39" stroke="white" stroke-width="2" stroke-linecap="round" stroke-linejoin="round"/>
<path opacity="0.1" d="M105.42 165.78H402.39" stroke="white" stroke-width="2" stroke-linecap="round" stroke-linejoin="round"/>
<path opacity="0.1" d="M105.42 174H402.39" stroke="white" stroke-width="2" stroke-linecap="round" stroke-linejoin="round"/>
<path opacity="0.1" d="M105.42 182.23H402.39" stroke="white" stroke-width="2" stroke-linecap="round" stroke-linejoin="round"/>
<path d="M50.07 188.66H34.34C26.14 188.66 19.5 200.54 19.5 215.2C19.5 229.86 26.14 241.73 34.34 241.73H50.07C58.27 241.73 64.91 229.85 64.91 215.2C64.91 200.55 58.27 188.66 50.07 188.66Z" fill="#263238"/>
<path opacity="0.05" d="M70.08 188.66H54.34C46.14 188.66 39.5 200.54 39.5 215.2C39.5 229.86 46.14 241.73 54.34 241.73H70.08C78.27 241.73 84.92 229.85 84.92 215.2C84.92 200.55 78.27 188.66 70.08 188.66Z" fill="white"/>
<path d="M41.3188 136.83H33.8788C32.4188 136.88 31.2188 135.32 31.1888 133.34C31.1688 133.134 31.1688 132.926 31.1888 132.72L33.1888 110.25C33.4388 107.94 34.8688 106.25 36.5888 106.14H44.0988C45.5488 106.14 46.7488 107.67 46.7788 109.65C46.7788 109.85 46.7788 110.05 46.7788 110.25L44.7788 132.72C44.4788 135 42.9988 136.77 41.3188 136.83Z" fill="#263238"/>
<path d="M48.7602 62.61L34.4102 140L190.64 201.2L189.55 48.68L155.19 47.68H61.0702C55.4102 47.63 50.4202 53.71 48.7602 62.61Z" fill="#76B900"/>
<path d="M165 75.0604C159.17 74.8004 153.94 79.5804 152.23 86.7104L140.41 136.23H117.66L116.42 201.56H191.25" fill="#76B900"/>
<path d="M50.9994 132.07C48.7094 132.07 46.8594 129.13 46.8594 125.51C46.8583 124.879 46.9186 124.249 47.0394 123.63L55.6294 78.1901C56.3494 74.4201 58.5494 71.8401 61.0394 71.8501H143.219C144.109 71.8501 144.839 72.9901 144.839 74.4101C144.841 74.6618 144.818 74.9131 144.769 75.1601C142.969 84.5201 137.119 115.53 134.879 127.39C134.359 130.17 132.739 132.07 130.879 132.07H50.9994Z" fill="#263238"/>
<path d="M126.619 152.21C126.617 153.007 126.56 153.802 126.449 154.59L126.019 157.52L125.769 159.25L123.929 171.89L120.929 192.44L120.099 198.15H3.80859V192.44L3.88859 171.89L3.99859 159.6V154.6C2.99859 148 6.18859 141.6 11.0486 140.27C11.6188 140.115 12.2075 140.037 12.7986 140.04H117.659C122.609 140 126.619 145.48 126.619 152.21Z" fill="#76B900"/>
<path d="M185.729 78.0002V126.71C185.729 129.66 184.219 132.06 182.349 132.07H153.929C152.059 132.07 150.549 129.67 150.549 126.71C150.548 126.228 150.588 125.746 150.669 125.27L159.429 75.4702C159.849 73.0802 161.249 71.4702 162.809 71.5602L182.469 72.6402C184.289 72.7502 185.729 75.1202 185.729 78.0002Z" fill="#263238"/>
<path opacity="0.1" d="M98.939 71.8501H83.239L65.209 132.07H80.919L98.939 71.8501Z" fill="white"/>
<path opacity="0.1" d="M111.159 71.8501H103.659L85.6387 132.07H93.1287L111.159 71.8501Z" fill="white"/>
<path d="M156.75 171.89V192.44H3.83008L3.91008 171.89H156.75Z" fill="black"/>
<path d="M135.449 171.89H121.309L95.8789 186.83V192.44H156.749V171.89H135.449Z" fill="white"/>
<path d="M30.1901 186.83V192.44H3.83008L3.91008 171.89H4.77008L30.1901 186.83Z" fill="white"/>
<path opacity="0.3" d="M190.709 201.56L189.549 48.6804L168.549 47.6804C163.309 47.4204 157.259 53.5104 155.729 60.5704L140.509 140H134.579C127.919 140 123.359 144.85 123.369 150L123.459 201.58H190.709" fill="#263238"/>
<path d="M126.23 158.24C126.228 158.43 126.186 158.617 126.107 158.789C126.027 158.961 125.913 159.115 125.77 159.24C125.526 159.467 125.204 159.592 124.87 159.59H4V156.87H124.9C125.13 156.871 125.356 156.93 125.558 157.042C125.759 157.154 125.928 157.315 126.05 157.51C126.176 157.732 126.239 157.985 126.23 158.24Z" fill="white"/>
<path d="M25.319 156.88V159.6H3.95898L3.96899 156.88H25.319Z" fill="#263238"/>
<path d="M126.229 158.24C126.227 158.43 126.185 158.617 126.105 158.789C126.026 158.961 125.911 159.115 125.769 159.24C125.524 159.467 125.202 159.592 124.869 159.59H95.5488V156.87H124.869C125.099 156.871 125.325 156.93 125.526 157.042C125.728 157.154 125.897 157.315 126.019 157.51C126.156 157.729 126.228 157.982 126.229 158.24Z" fill="#263238"/>
<path d="M407.729 196V196.54C407.729 197.866 407.203 199.138 406.265 200.076C405.327 201.013 404.055 201.54 402.729 201.54H5.5293C4.20321 201.54 2.93144 201.013 1.99376 200.076C1.05608 199.138 0.529297 197.866 0.529297 196.54V196C0.529297 194.674 1.05608 193.402 1.99376 192.464C2.93144 191.527 4.20321 191 5.5293 191H402.729C404.055 191 405.327 191.527 406.265 192.464C407.203 193.402 407.729 194.674 407.729 196Z" fill="#263238"/>
<path d="M93.6102 195.11H34.4102V198H93.6102V195.11Z" fill="black"/>
<path d="M18.6594 196.55C18.6594 196.876 18.5628 197.195 18.382 197.466C18.2011 197.737 17.944 197.949 17.6431 198.074C17.3422 198.199 17.0109 198.232 16.6911 198.169C16.3713 198.107 16.0773 197.95 15.8462 197.721C15.615 197.491 15.4571 197.198 15.3923 196.878C15.3275 196.559 15.3588 196.228 15.4821 195.926C15.6055 195.624 15.8154 195.366 16.0854 195.183C16.3554 195.001 16.6735 194.902 16.9994 194.9C17.2169 194.899 17.4325 194.941 17.6339 195.023C17.8352 195.105 18.0183 195.227 18.1726 195.38C18.3268 195.534 18.4493 195.716 18.5328 195.917C18.6164 196.118 18.6594 196.333 18.6594 196.55Z" fill="white"/>
<path d="M107.749 196.55C107.749 196.877 107.652 197.196 107.471 197.467C107.29 197.738 107.032 197.95 106.731 198.075C106.429 198.2 106.097 198.232 105.777 198.169C105.457 198.105 105.163 197.948 104.932 197.717C104.702 197.486 104.545 197.192 104.481 196.872C104.417 196.552 104.45 196.22 104.575 195.919C104.7 195.617 104.911 195.36 105.183 195.178C105.454 194.997 105.773 194.9 106.099 194.9C106.316 194.9 106.53 194.943 106.731 195.026C106.931 195.109 107.113 195.23 107.266 195.384C107.419 195.537 107.541 195.719 107.624 195.919C107.707 196.119 107.749 196.334 107.749 196.55Z" fill="white"/>
<path d="M155.59 212.93C155.59 197.02 162.8 184.12 171.7 184.12H154.61C145.72 184.12 138.51 197.02 138.51 212.93C138.51 228.84 145.72 241.73 154.61 241.73H171.7C162.8 241.76 155.59 228.87 155.59 212.93Z" fill="black"/>
<path opacity="0.7" d="M155.59 212.93C155.59 197.02 162.8 184.12 171.7 184.12H154.61C145.72 184.12 138.51 197.02 138.51 212.93C138.51 228.84 145.72 241.73 154.61 241.73H171.7C162.8 241.76 155.59 228.87 155.59 212.93Z" fill="#263238"/>
<path d="M171.7 241.77C180.597 241.77 187.81 228.872 187.81 212.96C187.81 197.049 180.597 184.15 171.7 184.15C162.803 184.15 155.59 197.049 155.59 212.96C155.59 228.872 162.803 241.77 171.7 241.77Z" fill="#263238"/>
<path d="M172.988 235.42C179.295 235.42 184.408 225.364 184.408 212.96C184.408 200.556 179.295 190.5 172.988 190.5C166.681 190.5 161.568 200.556 161.568 212.96C161.568 225.364 166.681 235.42 172.988 235.42Z" fill="white"/>
<path d="M171.95 232.4C177.986 232.4 182.88 223.696 182.88 212.96C182.88 202.224 177.986 193.52 171.95 193.52C165.913 193.52 161.02 202.224 161.02 212.96C161.02 223.696 165.913 232.4 171.95 232.4Z" fill="#263238"/>
<path d="M169.548 227.15C173.956 227.15 177.528 220.797 177.528 212.96C177.528 205.123 173.956 198.77 169.548 198.77C165.141 198.77 161.568 205.123 161.568 212.96C161.568 220.797 165.141 227.15 169.548 227.15Z" fill="black"/>
<path opacity="0.5" d="M407.729 196V196.54C407.729 197.866 407.202 199.138 406.264 200.076C405.327 201.013 404.055 201.54 402.729 201.54H200.629V191H402.729C404.055 191 405.327 191.527 406.264 192.464C407.202 193.402 407.729 194.674 407.729 196Z" fill="black"/>
<path d="M344.92 212.93C344.92 197.02 352.13 184.12 361.02 184.12H343.94C335.04 184.12 327.83 197.02 327.83 212.93C327.83 228.84 335.04 241.73 343.94 241.73H361C352.13 241.76 344.92 228.87 344.92 212.93Z" fill="black"/>
<path opacity="0.7" d="M344.92 212.93C344.92 197.02 352.13 184.12 361.02 184.12H343.94C335.04 184.12 327.83 197.02 327.83 212.93C327.83 228.84 335.04 241.73 343.94 241.73H361C352.13 241.76 344.92 228.87 344.92 212.93Z" fill="#263238"/>
<path d="M361.02 241.77C369.917 241.77 377.13 228.872 377.13 212.96C377.13 197.049 369.917 184.15 361.02 184.15C352.123 184.15 344.91 197.049 344.91 212.96C344.91 228.872 352.123 241.77 361.02 241.77Z" fill="#263238"/>
<path d="M362.318 235.42C368.626 235.42 373.738 225.364 373.738 212.96C373.738 200.556 368.626 190.5 362.318 190.5C356.011 190.5 350.898 200.556 350.898 212.96C350.898 225.364 356.011 235.42 362.318 235.42Z" fill="white"/>
<path d="M361.27 232.4C367.306 232.4 372.2 223.696 372.2 212.96C372.2 202.224 367.306 193.52 361.27 193.52C355.233 193.52 350.34 202.224 350.34 212.96C350.34 223.696 355.233 232.4 361.27 232.4Z" fill="#263238"/>
<path d="M358.869 227.15C363.276 227.15 366.849 220.797 366.849 212.96C366.849 205.123 363.276 198.77 358.869 198.77C354.461 198.77 350.889 205.123 350.889 212.96C350.889 220.797 354.461 227.15 358.869 227.15Z" fill="black"/>
</svg>
