<svg width="800" height="592" viewBox="0 0 800 592" fill="none" xmlns="http://www.w3.org/2000/svg">
<path d="M45.5 0C20.5625 0 0 20.5625 0 45.5V464C0 490.562 21.4375 512 48 512H113.5C121.125 557.375 160.562 592 208 592C255.438 592 294.875 557.375 302.5 512H450.5C462.312 512 472.875 507 481 499.5C489.312 506.812 499.938 511.875 512 512H529.5C537.125 557.375 576.562 592 624 592C676.812 592 720 548.812 720 496C720 443.188 676.812 400 624 400C576.562 400 537.125 434.625 529.5 480H512C509 480 504.438 477.938 501 474.5C497.562 471.062 496 466.938 496 464V160C496 154 506 144 512 144H640C652.562 144 670.25 157.438 682.5 172C682.625 172.188 682.875 172.312 683 172.5L685.5 176H608C582.5 176 560 196.625 560 224V288C560 301.312 566 313 574.5 321.5C583 330 594.688 336 608 336H768V464C768 470 758 480 752 480H720V512H752C778.562 512 800 490.562 800 464V310C800 273.375 774.5 241 774.5 241H774L708 153V152.5L707.5 152C692.75 134.188 670.625 112 640 112H512C506.312 112 501.062 113.188 496 115V46.5C496 21.9375 476.625 0 451 0H45.5ZM45.5 32H451C457.875 32 464 38.625 464 46.5V466.5C464 474 458.062 480 450.5 480H302.5C294.875 434.625 255.438 400 208 400C160.562 400 121.125 434.625 113.5 480H48C42 480 32 469.938 32 464V45.5C32 38 37.875 32 45.5 32ZM608 208H709.5L748.5 260C748.5 260 763 284.812 766 304H608C605.312 304 601 302 597.5 298.5C594 295 592 290.688 592 288V224C592 215.938 601.5 208 608 208ZM208 432C243.562 432 272 460.438 272 496C272 531.562 243.562 560 208 560C172.438 560 144 531.562 144 496C144 460.438 172.438 432 208 432ZM624 432C659.562 432 688 460.438 688 496C688 531.562 659.562 560 624 560C588.438 560 560 531.562 560 496C560 460.438 588.438 432 624 432Z" fill="#76B900"/>
</svg>
